<svg xmlns="http://www.w3.org/2000/svg" viewBox="0 0 16 16" fill="#000000" id="Number-Circle-One-Bold--Streamline-Phosphor" height="16" width="16"><desc>Number Circle One Bold Streamline Icon: https://streamlinehq.com</desc><path d="M8 0.16C1.9647625 0.16026875 -1.8073125 6.693775 1.2105375 11.92030625c3.01785 5.22653125 10.56189375 5.22619375 13.579275 -0.0006125C15.47780625 10.7279375 15.84 9.3760875 15.84 8 15.8352 3.67208125 12.32791875 0.16480625 8 0.16Zm0 13.937775C3.30593125 14.09756875 0.3720875 9.01595625 2.71930625 4.950875c2.34721875 -4.06508125 8.21480625 -4.06481875 10.5616625 0.000475 0.5351 0.92691875 0.81680625 1.97835625 0.81680625 3.04865 -0.0036 3.3662125 -2.7315625 6.094175 -6.097775 6.097775Zm1.16148125 -9.58221875v6.9688875c0 0.67058125 -0.725925 1.08969375 -1.30666875 0.75440625 -0.26951875 -0.1556125 -0.43555625 -0.4431875 -0.43555625 -0.75440625V6.14308125l-0.38764375 0.25988125c-0.55881875 0.372175 -1.31096875 -0.00015625 -1.35386875 -0.67019375 -0.0199125 -0.31096875 0.1275875 -0.60893125 0.3869375 -0.78165625l1.742225 -1.16148125c0.55781875 -0.372175 1.30935 -0.000925 1.35275 0.66825625 0.00124375 0.01919375 0.00185625 0.03843125 0.001825 0.05766875Z" stroke-width="0.0625"></path></svg>