<svg xmlns="http://www.w3.org/2000/svg" viewBox="0 0 16 16" fill="#000000" id="Number-Circle-Two-Bold--Streamline-Phosphor" height="16" width="16"><desc>Number Circle Two Bold Streamline Icon: https://streamlinehq.com</desc><path d="M8 0.16C1.9647625 0.16026875 -1.8073125 6.693775 1.2105375 11.92030625c3.01785 5.22653125 10.56189375 5.22619375 13.579275 -0.0006125C15.47780625 10.7279375 15.84 9.3760875 15.84 8 15.8352 3.67208125 12.32791875 0.16480625 8 0.16Zm0 13.937775C3.30593125 14.09756875 0.3720875 9.01595625 2.71930625 4.950875c2.34721875 -4.06508125 8.21480625 -4.06481875 10.5616625 0.000475 0.5351 0.92691875 0.81680625 1.97835625 0.81680625 3.04865 -0.0036 3.3662125 -2.7315625 6.094175 -6.097775 6.097775Zm2.0870375 -6.26691875L8 10.61333125h1.742225c0.67058125 0 1.08969375 0.725925 0.7544 1.30666875 -0.15560625 0.269525 -0.4431875 0.43555625 -0.7544 0.43555625h-3.48444375c-0.6705875 -0.00003125 -1.08970625 -0.725975 -0.7543875 -1.3067 0.01740625 -0.03015 0.03660625 -0.059225 0.05749375 -0.087075l3.133825 -4.17843125c0.4036875 -0.5354625 0.07634375 -1.307125 -0.589225 -1.389 -0.405175 -0.04984375 -0.7906125 0.18836875 -0.9272375 0.57305625 -0.223525 0.63230625 -1.04771875 0.78551875 -1.48354375 0.2757875 -0.20226875 -0.23656875 -0.2629625 -0.563075 -0.159225 -0.856525 0.08950625 -0.251775 0.2167875 -0.488475 0.37748125 -0.701975 1.21095625 -1.6066 3.70700625 -1.299825 4.4928875 0.5522 0.364725 0.859525 0.24319375 1.8483375 -0.3188125 2.59396875Z" stroke-width="0.0625"></path></svg>