<svg xmlns="http://www.w3.org/2000/svg" viewBox="0 0 16 16" fill="#000000" id="Number-Circle-Three-Bold--Streamline-Phosphor" height="16" width="16"><desc>Number Circle Three Bold Streamline Icon: https://streamlinehq.com</desc><path d="M8 0.16C1.9647625 0.16026875 -1.8073125 6.693775 1.2105375 11.92030625c3.01785 5.22653125 10.56189375 5.22619375 13.579275 -0.0006125C15.47780625 10.7279375 15.84 9.3760875 15.84 8 15.8352 3.67208125 12.32791875 0.16480625 8 0.16Zm0 13.937775C3.30593125 14.09756875 0.3720875 9.01595625 2.71930625 4.950875c2.34721875 -4.06508125 8.21480625 -4.06481875 10.5616625 0.000475 0.5351 0.92691875 0.81680625 1.97835625 0.81680625 3.04865 -0.0036 3.3662125 -2.7315625 6.094175 -6.097775 6.097775Zm2.61333125 -4.35555c0.00024375 2.23526875 -2.41935625 3.63258125 -4.35528125 2.51515625 -0.2284125 -0.13184375 -0.43780625 -0.29419375 -0.62239375 -0.48256875 -0.48035625 -0.4679 -0.2740625 -1.28035 0.3713375 -1.4624 0.31361875 -0.0884625 0.65039375 0.00550625 0.8729 0.243575 0.6264375 0.63796875 1.7085875 0.35856875 1.94786875 -0.50293125 0.20545 -0.7396875 -0.3504375 -1.4716625 -1.11813125 -1.4723125 -0.67058125 -0.0001125 -1.0895875 -0.72610625 -0.7542 -1.30679375 0.01260625 -0.02183125 0.02615625 -0.0431 0.0406125 -0.06375625l1.07655 -1.53315625h-1.81481875c-0.67058125 0 -1.08969375 -0.725925 -0.7544 -1.30666875 0.15560625 -0.26951875 0.4431875 -0.43555625 0.7544 -0.43555625h3.48445c0.67058125 0.0001125 1.08958125 0.72610625 0.75419375 1.3067875 -0.01260625 0.02183125 -0.02615625 0.04310625 -0.0406125 0.0637625l-1.33135 1.901925c0.918975 0.51275625 1.4886 1.4825875 1.488875 2.5349375Z" stroke-width="0.0625"></path></svg>