<svg xmlns="http://www.w3.org/2000/svg" viewBox="0 0 16 16" fill="#000000" id="Number-Circle-Four-Bold--Streamline-Phosphor" height="16" width="16"><desc>Number Circle Four Bold Streamline Icon: https://streamlinehq.com</desc><path d="M8 0.16C1.9647625 0.16026875 -1.8073125 6.693775 1.2105375 11.92030625c3.01785 5.22653125 10.56189375 5.22619375 13.579275 -0.0006125C15.47780625 10.7279375 15.84 9.3760875 15.84 8 15.8352 3.67208125 12.32791875 0.16480625 8 0.16Zm0 13.937775C3.30593125 14.09756875 0.3720875 9.01595625 2.71930625 4.950875c2.34721875 -4.06508125 8.21480625 -4.06481875 10.5616625 0.000475 0.5351 0.92691875 0.81680625 1.97835625 0.81680625 3.04865 -0.0036 3.3662125 -2.7315625 6.094175 -6.097775 6.097775Zm2.3229625 -5.2266625h-0.29036875V4.51555625c-0.0000125 -0.67058125 -0.72594375 -1.0896875 -1.306675 -0.7543875 -0.09733125 0.05619375 -0.1828625 0.1306875 -0.2518875 0.21938125l-4.0651875 5.2266625c-0.41185 0.5292125 -0.09636875 1.30580625 0.5678625 1.39786875 0.03961875 0.00549375 0.07959375 0.00825 0.1195875 0.00825h3.194075v0.8711125c0 0.67058125 0.725925 1.08969375 1.30666875 0.75440625 0.269525 -0.1556125 0.43555625 -0.4431875 0.43555625 -0.75440625v-0.8711125h0.29036875c0.67058125 0 1.08969375 -0.725925 0.75440625 -1.3066625 -0.1556125 -0.269525 -0.4431875 -0.43555625 -0.75440625 -0.43555625Zm-2.03259375 0h-1.41265l1.41265 -1.81481875Z" stroke-width="0.0625"></path></svg>