<svg xmlns="http://www.w3.org/2000/svg" viewBox="0 0 16 16" fill="#000000" id="Number-Circle-Five-Bold--Streamline-Phosphor" height="16" width="16"><desc>Number Circle Five Bold Streamline Icon: https://streamlinehq.com</desc><path d="M8 0.16C1.9647625 0.16026875 -1.8073125 6.693775 1.2105375 11.92030625c3.01785 5.22653125 10.56189375 5.22619375 13.579275 -0.0006125C15.47780625 10.7279375 15.84 9.3760875 15.84 8 15.8352 3.67208125 12.32791875 0.16480625 8 0.16Zm0 13.937775C3.30593125 14.09756875 0.3720875 9.01595625 2.71930625 4.950875c2.34721875 -4.06508125 8.21480625 -4.06481875 10.5616625 0.000475 0.5351 0.92691875 0.81680625 1.97835625 0.81680625 3.04865 -0.0036 3.3662125 -2.7315625 6.094175 -6.097775 6.097775Zm-0.4232125 -8.71110625 -0.196725 1.178175c0.10950625 -0.01106875 0.2195 -0.0166375 0.32956875 -0.01669375 2.23526875 0 3.6323125 2.41975 2.51468125 4.35555625 -0.5187 0.89840625 -1.4772875 1.45185 -2.51468125 1.45185 -0.7768125 0.01163125 -1.52514375 -0.29220625 -2.073975 -0.842075 -0.46940625 -0.47890625 -0.24435 -1.286375 0.4051 -1.4534375 0.30140625 -0.0775375 0.6212875 0.01161875 0.8391375 0.23388125 0.22119375 0.21556875 0.52109375 0.3310125 0.8297375 0.31940625 0.89410625 0 1.452925 -0.9679 1.00586875 -1.74221875 -0.20746875 -0.35935 -0.59093125 -0.580725 -1.00586875 -0.58074375 -0.30864375 -0.01160625 -0.60854375 0.10384375 -0.8297375 0.31940625 -0.46884375 0.47944375 -1.28088125 0.27155 -1.46166875 -0.3742 -0.03468125 -0.12389375 -0.04149375 -0.253925 -0.01994375 -0.3807625l0.58074375 -3.48444375c0.07088125 -0.41934375 0.4342 -0.7262 0.85949375 -0.725925h2.90370625c0.67058125 0 1.08969375 0.725925 0.7544 1.30666875 -0.15560625 0.26951875 -0.4431875 0.43555625 -0.7544 0.43555625Z" stroke-width="0.0625"></path></svg>