<svg xmlns="http://www.w3.org/2000/svg" viewBox="0 0 16 16" fill="#000000" id="Number-Circle-Six-Bold--Streamline-Phosphor" height="16" width="16"><desc>Number Circle Six Bold Streamline Icon: https://streamlinehq.com</desc><path d="M8 0.16C1.9647625 0.16026875 -1.8073125 6.693775 1.2105375 11.92030625c3.01785 5.22653125 10.56189375 5.22619375 13.579275 -0.0006125C15.47780625 10.7279375 15.84 9.3760875 15.84 8 15.8352 3.67208125 12.32791875 0.16480625 8 0.16Zm0 13.937775C3.30593125 14.09756875 0.3720875 9.01595625 2.71930625 4.950875c2.34721875 -4.06508125 8.21480625 -4.06481875 10.5616625 0.000475 0.5351 0.92691875 0.81680625 1.97835625 0.81680625 3.04865 -0.0036 3.3662125 -2.7315625 6.094175 -6.097775 6.097775Zm0.36731875 -7.52566875 0.961125 -1.61010625c0.35786875 -0.56710625 -0.032375 -1.30895 -0.7024375 -1.335325 -0.3263625 -0.01284375 -0.63249375 0.1579625 -0.79296875 0.4424375l-2.3403875 3.92c-1.1260375 1.930925 0.260475 4.356725 2.495725 4.36644375 2.23525 0.00971875 3.6428 -2.4039375 2.53359375 -4.34458125 -0.4524 -0.7915 -1.2502625 -1.32458125 -2.15465 -1.4396ZM8 10.61333125c-0.89410625 0 -1.452925 -0.9679 -1.005875 -1.74221875 0.44705625 -0.774325 1.56469375 -0.774325 2.01175 0 0.1019375 0.17656875 0.15560625 0.37685625 0.15560625 0.5807375 0 0.64146875 -0.5200125 1.16148125 -1.16148125 1.16148125Z" stroke-width="0.0625"></path></svg>