<svg xmlns="http://www.w3.org/2000/svg" viewBox="0 0 16 16" fill="#000000" id="Number-Circle-Seven-Bold--Streamline-Phosphor" height="16" width="16"><desc>Number Circle Seven Bold Streamline Icon: https://streamlinehq.com</desc><path d="M8 0.16C1.9647625 0.16026875 -1.8073125 6.693775 1.2105375 11.92030625c3.01785 5.22653125 10.56189375 5.22619375 13.579275 -0.0006125C15.47780625 10.7279375 15.84 9.3760875 15.84 8 15.8352 3.67208125 12.32791875 0.16480625 8 0.16Zm0 13.937775C3.30593125 14.09756875 0.3720875 9.01595625 2.71930625 4.950875c2.34721875 -4.06508125 8.21480625 -4.06481875 10.5616625 0.000475 0.5351 0.92691875 0.81680625 1.97835625 0.81680625 3.04865 -0.0036 3.3662125 -2.7315625 6.094175 -6.097775 6.097775Zm2.45580625 -9.50091875c0.16341875 0.233 0.20271875 0.5311375 0.1052625 0.79851875l-2.3229625 6.38815c-0.22911875 0.63035 -1.0546875 0.7762875 -1.486025 0.26269375 -0.20018125 -0.23835625 -0.258 -0.56540625 -0.15166875 -0.85795l1.8983 -5.2208625h-2.2409375c-0.67058125 -0.00003125 -1.0897 -0.725975 -0.75438125 -1.3067 0.1556125 -0.2695 0.44318125 -0.43551875 0.75438125 -0.43551875h3.48445c0.28425 0.00004375 0.55060625 0.138775 0.71358125 0.371675Z" stroke-width="0.0625"></path></svg>