<svg xmlns="http://www.w3.org/2000/svg" viewBox="0 0 16 16" fill="#000000" id="Number-Circle-Eight-Bold--Streamline-Phosphor" height="16" width="16"><desc>Number Circle Eight Bold Streamline Icon: https://streamlinehq.com</desc><path d="M8 0.16C1.9647625 0.16026875 -1.8073125 6.693775 1.2105375 11.92030625c3.01785 5.22653125 10.56189375 5.22619375 13.579275 -0.0006125C15.47780625 10.7279375 15.84 9.3760875 15.84 8 15.8352 3.67208125 12.32791875 0.16480625 8 0.16Zm0 13.937775C3.30593125 14.09756875 0.3720875 9.01595625 2.71930625 4.950875c2.34721875 -4.06508125 8.21480625 -4.06481875 10.5616625 0.000475 0.5351 0.92691875 0.81680625 1.97835625 0.81680625 3.04865 -0.0036 3.3662125 -2.7315625 6.094175 -6.097775 6.097775Zm2.00355625 -6.45420625c1.29163125 -1.5423375 0.42926875 -3.90453125 -1.55225 -4.25194375 -1.98151875 -0.34741875 -3.59605625 1.58050625 -2.90616875 3.47025625 0.10395625 0.28476875 0.25666875 0.549275 0.45130625 0.7816875 -1.6179125 1.5423375 -0.959475 4.2577375 1.18518125 4.887725 2.1446625 0.62998125 4.16705 -1.29794375 3.6403 -3.4702625 -0.131225 -0.5411875 -0.4153 -1.033225 -0.81836875 -1.4174625Zm-2.87466875 -1.6761625c0 -0.67058125 0.725925 -1.08969375 1.30666875 -0.75440625 0.5807375 0.33529375 0.5807375 1.17351875 0 1.5088125 -0.1324125 0.07645 -0.28265625 0.1167 -0.43555625 0.11670625 -0.4811 0 -0.8711125 -0.3900125 -0.8711125 -0.8711125ZM8 10.90370625c-0.89410625 0 -1.452925 -0.96790625 -1.005875 -1.742225 0.44705625 -0.77431875 1.56469375 -0.77431875 2.01175 0 0.1019375 0.17656875 0.15560625 0.37685625 0.15560625 0.58074375 0 0.64146875 -0.5200125 1.16148125 -1.16148125 1.16148125Z" stroke-width="0.0625"></path></svg>