<svg xmlns="http://www.w3.org/2000/svg" viewBox="0 0 16 16" fill="#000000" id="Number-Circle-Nine-Bold--Streamline-Phosphor" height="16" width="16"><desc>Number Circle Nine Bold Streamline Icon: https://streamlinehq.com</desc><path d="M8 0.16C1.9647625 0.16026875 -1.8073125 6.693775 1.2105375 11.92030625c3.01785 5.22653125 10.56189375 5.22619375 13.579275 -0.0006125C15.47780625 10.7279375 15.84 9.3760875 15.84 8 15.8352 3.67208125 12.32791875 0.16480625 8 0.16Zm0 13.937775C3.30593125 14.09756875 0.3720875 9.01595625 2.71930625 4.950875c2.34721875 -4.06508125 8.21480625 -4.06481875 10.5616625 0.000475 0.5351 0.92691875 0.81680625 1.97835625 0.81680625 3.04865 -0.0036 3.3662125 -2.7315625 6.094175 -6.097775 6.097775Zm1.45185 -10.06423125c-1.935825 -1.1176 -4.35555 0.27949375 -4.3555 2.51476875 0.000025 1.4616125 1.0864625 2.6953875 2.53633125 2.8803125l-0.961125 1.609375c-0.35786875 0.56710625 0.032375 1.30895 0.7024375 1.335325 0.3263625 0.01284375 0.63249375 -0.1579625 0.79296875 -0.4424375L10.51460625 8c0.8018 -1.38878125 0.32599375 -3.1646 -1.06275625 -3.96645625Zm-0.44571875 3.09534375c-0.44711875 0.7742875 -1.56475 0.77419375 -2.01174375 -0.0001625 -0.4469875 -0.77435625 0.11190625 -1.7422125 1.00601875 -1.74214375 0.203725 0.00001875 0.40386875 0.053625 0.5803375 0.15543125 0.55525 0.32115 0.74505 1.0316 0.4239375 1.586875Z" stroke-width="0.0625"></path></svg>