<svg xmlns="http://www.w3.org/2000/svg" fill="none" viewBox="0 0 48 48" id="Business--Streamline-Ionic-Filled.svg" height="48" width="48"><desc>Business Streamline Icon: https://streamlinehq.com</desc><path fill="#000000" d="M40.4985 16.4988H29.9987V5.99896c0 -1.19346 -0.4741 -2.33803 -1.3181 -3.18193 -0.8439 -0.84391 -1.9885 -1.31801 -3.1819 -1.31801H7.49896c-1.19346 0 -2.33803 0.4741 -3.18193 1.31801 -0.84391 0.8439 -1.31801 1.98847 -1.31801 3.18193V44.9984c0 0.3978 0.15804 0.7794 0.43934 1.0607s0.66282 0.4393 1.06064 0.4393h9.7499c0.1989 0 0.3897 -0.079 0.5303 -0.2196 0.1406 -0.1407 0.2197 -0.3314 0.2197 -0.5304v-6.7077c0 -0.8072 0.6206 -1.5 1.4278 -1.5403 0.2027 -0.0097 0.4054 0.0218 0.5957 0.0926 0.1903 0.0709 0.3642 0.1797 0.5112 0.3197 0.147 0.1401 0.264 0.3085 0.344 0.4952 0.08 0.1867 0.1212 0.3876 0.1212 0.5906v6.7499c0 0.199 0.0791 0.3897 0.2197 0.5304 0.1406 0.1406 0.3314 0.2196 0.5303 0.2196h24.7497c0.3978 0 0.7793 -0.158 1.0607 -0.4393 0.2812 -0.2813 0.4393 -0.6629 0.4393 -1.0607V20.9988c0 -1.1935 -0.4741 -2.338 -1.3181 -3.182 -0.8439 -0.8439 -1.9885 -1.318 -3.1819 -1.318ZM9.19394 40.4863c-0.31065 0.0406 -0.62624 -0.0171 -0.90245 -0.1649 -0.27622 -0.1478 -0.49919 -0.3785 -0.63764 -0.6595 -0.13845 -0.2811 -0.18542 -0.5984 -0.13432 -0.9076 0.0511 -0.3091 0.19771 -0.5944 0.41925 -0.816 0.22153 -0.2215 0.50688 -0.3681 0.81599 -0.4192 0.3091 -0.0511 0.62648 -0.0042 0.90754 0.1343s0.51169 0.3614 0.65949 0.6377c0.1479 0.2762 0.2055 0.5917 0.1649 0.9024 -0.0428 0.3279 -0.1928 0.6324 -0.4266 0.8662 -0.23382 0.2338 -0.53832 0.3838 -0.86616 0.4266Zm0 -7.4999c-0.31065 0.0406 -0.62624 -0.017 -0.90245 -0.1649 -0.27622 -0.1478 -0.49919 -0.3785 -0.63764 -0.6595 -0.13845 -0.2811 -0.18542 -0.5984 -0.13432 -0.9076 0.0511 -0.3091 0.19771 -0.5944 0.41925 -0.816 0.22153 -0.2215 0.50688 -0.3681 0.81599 -0.4192 0.3091 -0.0511 0.62648 -0.0042 0.90754 0.1343s0.51169 0.3614 0.65949 0.6377c0.1479 0.2762 0.2055 0.5917 0.1649 0.9024 -0.0428 0.3279 -0.1928 0.6324 -0.4266 0.8662 -0.23382 0.2338 -0.53832 0.3838 -0.86616 0.4266Zm0 -7.4999c-0.31065 0.0406 -0.62624 -0.0171 -0.90245 -0.1649 -0.27622 -0.1478 -0.49919 -0.3785 -0.63764 -0.6595 -0.13845 -0.2811 -0.18542 -0.5984 -0.13432 -0.9076 0.0511 -0.3091 0.19771 -0.5944 0.41925 -0.816 0.22153 -0.2215 0.50688 -0.3681 0.81599 -0.4192 0.3091 -0.0511 0.62648 -0.0042 0.90754 0.1343s0.51169 0.3614 0.65949 0.6377c0.1479 0.2762 0.2055 0.5917 0.1649 0.9024 -0.0428 0.3279 -0.1928 0.6324 -0.4266 0.8662 -0.23382 0.2338 -0.53832 0.3838 -0.86616 0.4266Zm0 -7.4999c-0.31065 0.0406 -0.62624 -0.017 -0.90245 -0.1649 -0.27622 -0.1478 -0.49919 -0.3785 -0.63764 -0.6595 -0.13845 -0.2811 -0.18542 -0.5984 -0.13432 -0.9076 0.0511 -0.3091 0.19771 -0.5944 0.41925 -0.816 0.22153 -0.2215 0.50688 -0.3681 0.81599 -0.4192 0.3091 -0.0511 0.62648 -0.0042 0.90754 0.1343s0.51169 0.3614 0.65949 0.6377c0.1479 0.2762 0.2055 0.5917 0.1649 0.9024 -0.0428 0.3279 -0.1928 0.6324 -0.4266 0.8662 -0.23382 0.2338 -0.53832 0.3838 -0.86616 0.4266Zm0 -7.4999c-0.31065 0.0406 -0.62624 -0.017 -0.90245 -0.1649 -0.27622 -0.1478 -0.49919 -0.37845 -0.63764 -0.65951 -0.13845 -0.28106 -0.18542 -0.59844 -0.13432 -0.90754 0.0511 -0.30911 0.19771 -0.59446 0.41925 -0.81599 0.22153 -0.22154 0.50688 -0.36815 0.81599 -0.41925 0.3091 -0.0511 0.62648 -0.00413 0.90754 0.13432s0.51169 0.36142 0.65949 0.63764c0.1479 0.27621 0.2055 0.5918 0.1649 0.90245 -0.0428 0.32784 -0.1928 0.63234 -0.4266 0.86618 -0.23382 0.2338 -0.53832 0.3838 -0.86616 0.4266Zm7.49986 22.4997c-0.3106 0.0406 -0.6262 -0.017 -0.9024 -0.1649 -0.2763 -0.1478 -0.4992 -0.3785 -0.6377 -0.6595 -0.1384 -0.2811 -0.1854 -0.5984 -0.1343 -0.9076 0.0511 -0.3091 0.1977 -0.5944 0.4192 -0.816 0.2217 -0.2215 0.5069 -0.3681 0.816 -0.4192 0.3092 -0.0511 0.6266 -0.0042 0.9076 0.1343 0.2811 0.1385 0.5117 0.3614 0.6595 0.6377 0.1479 0.2762 0.2055 0.5917 0.1649 0.9024 -0.0428 0.3279 -0.1928 0.6324 -0.4266 0.8662 -0.2338 0.2338 -0.5383 0.3838 -0.8662 0.4266Zm0 -7.4999c-0.3106 0.0406 -0.6262 -0.0171 -0.9024 -0.1649 -0.2763 -0.1478 -0.4992 -0.3785 -0.6377 -0.6595 -0.1384 -0.2811 -0.1854 -0.5984 -0.1343 -0.9076 0.0511 -0.3091 0.1977 -0.5944 0.4192 -0.816 0.2217 -0.2215 0.5069 -0.3681 0.816 -0.4192 0.3092 -0.0511 0.6266 -0.0042 0.9076 0.1343 0.2811 0.1385 0.5117 0.3614 0.6595 0.6377 0.1479 0.2762 0.2055 0.5917 0.1649 0.9024 -0.0428 0.3279 -0.1928 0.6324 -0.4266 0.8662 -0.2338 0.2338 -0.5383 0.3838 -0.8662 0.4266Zm0 -7.4999c-0.3106 0.0406 -0.6262 -0.017 -0.9024 -0.1649 -0.2763 -0.1478 -0.4992 -0.3785 -0.6377 -0.6595 -0.1384 -0.2811 -0.1854 -0.5984 -0.1343 -0.9076 0.0511 -0.3091 0.1977 -0.5944 0.4192 -0.816 0.2217 -0.2215 0.5069 -0.3681 0.816 -0.4192 0.3092 -0.0511 0.6266 -0.0042 0.9076 0.1343 0.2811 0.1385 0.5117 0.3614 0.6595 0.6377 0.1479 0.2762 0.2055 0.5917 0.1649 0.9024 -0.0428 0.3279 -0.1928 0.6324 -0.4266 0.8662 -0.2338 0.2338 -0.5383 0.3838 -0.8662 0.4266Zm0 -7.4999c-0.3106 0.0406 -0.6262 -0.017 -0.9024 -0.1649 -0.2763 -0.1478 -0.4992 -0.37845 -0.6377 -0.65951 -0.1384 -0.28106 -0.1854 -0.59844 -0.1343 -0.90754 0.0511 -0.30911 0.1977 -0.59446 0.4192 -0.81599 0.2217 -0.22154 0.5069 -0.36815 0.816 -0.41925 0.3092 -0.0511 0.6266 -0.00413 0.9076 0.13432 0.2811 0.13845 0.5117 0.36142 0.6595 0.63764 0.1479 0.27621 0.2055 0.5918 0.1649 0.90245 -0.0428 0.32784 -0.1928 0.63234 -0.4266 0.86618 -0.2338 0.2338 -0.5383 0.3838 -0.8662 0.4266Zm7.4999 29.9996c-0.3106 0.0406 -0.6262 -0.0171 -0.9024 -0.1649 -0.2763 -0.1478 -0.4992 -0.3785 -0.6377 -0.6595 -0.1384 -0.2811 -0.1854 -0.5984 -0.1343 -0.9076 0.0511 -0.3091 0.1977 -0.5944 0.4192 -0.816 0.2217 -0.2215 0.5069 -0.3681 0.816 -0.4192 0.3092 -0.0511 0.6265 -0.0042 0.9076 0.1343s0.5117 0.3614 0.6595 0.6377c0.1479 0.2762 0.2055 0.5917 0.1649 0.9024 -0.0428 0.3279 -0.1928 0.6324 -0.4266 0.8662 -0.2338 0.2338 -0.5383 0.3838 -0.8662 0.4266Zm0 -7.4999c-0.3106 0.0406 -0.6262 -0.017 -0.9024 -0.1649 -0.2763 -0.1478 -0.4992 -0.3785 -0.6377 -0.6595 -0.1384 -0.2811 -0.1854 -0.5984 -0.1343 -0.9076 0.0511 -0.3091 0.1977 -0.5944 0.4192 -0.816 0.2217 -0.2215 0.5069 -0.3681 0.816 -0.4192 0.3092 -0.0511 0.6265 -0.0042 0.9076 0.1343s0.5117 0.3614 0.6595 0.6377c0.1479 0.2762 0.2055 0.5917 0.1649 0.9024 -0.0428 0.3279 -0.1928 0.6324 -0.4266 0.8662 -0.2338 0.2338 -0.5383 0.3838 -0.8662 0.4266Zm0 -7.4999c-0.3106 0.0406 -0.6262 -0.0171 -0.9024 -0.1649 -0.2763 -0.1478 -0.4992 -0.3785 -0.6377 -0.6595 -0.1384 -0.2811 -0.1854 -0.5984 -0.1343 -0.9076 0.0511 -0.3091 0.1977 -0.5944 0.4192 -0.816 0.2217 -0.2215 0.5069 -0.3681 0.816 -0.4192 0.3092 -0.0511 0.6265 -0.0042 0.9076 0.1343s0.5117 0.3614 0.6595 0.6377c0.1479 0.2762 0.2055 0.5917 0.1649 0.9024 -0.0428 0.3279 -0.1928 0.6324 -0.4266 0.8662 -0.2338 0.2338 -0.5383 0.3838 -0.8662 0.4266Zm0 -7.4999c-0.3106 0.0406 -0.6262 -0.017 -0.9024 -0.1649 -0.2763 -0.1478 -0.4992 -0.3785 -0.6377 -0.6595 -0.1384 -0.2811 -0.1854 -0.5984 -0.1343 -0.9076 0.0511 -0.3091 0.1977 -0.5944 0.4192 -0.816 0.2217 -0.2215 0.5069 -0.3681 0.816 -0.4192 0.3092 -0.0511 0.6265 -0.0042 0.9076 0.1343s0.5117 0.3614 0.6595 0.6377c0.1479 0.2762 0.2055 0.5917 0.1649 0.9024 -0.0428 0.3279 -0.1928 0.6324 -0.4266 0.8662 -0.2338 0.2338 -0.5383 0.3838 -0.8662 0.4266Zm0 -7.4999c-0.3106 0.0406 -0.6262 -0.017 -0.9024 -0.1649 -0.2763 -0.1478 -0.4992 -0.37845 -0.6377 -0.65951 -0.1384 -0.28106 -0.1854 -0.59844 -0.1343 -0.90754 0.0511 -0.30911 0.1977 -0.59446 0.4192 -0.81599 0.2217 -0.22154 0.5069 -0.36815 0.816 -0.41925 0.3092 -0.0511 0.6265 -0.00413 0.9076 0.13432s0.5117 0.36142 0.6595 0.63764c0.1479 0.27621 0.2055 0.5918 0.1649 0.90245 -0.0428 0.32784 -0.1928 0.63234 -0.4266 0.86618 -0.2338 0.2338 -0.5383 0.3838 -0.8662 0.4266Zm17.4298 33.0118H29.9987V19.4988h10.4998c0.3978 0 0.7794 0.158 1.0607 0.4393 0.2812 0.2813 0.4393 0.6629 0.4393 1.0607v22.1247c0 0.0994 -0.0395 0.1948 -0.1099 0.2651 -0.0703 0.0704 -0.1656 0.1099 -0.2651 0.1099Z" stroke-width="1"></path><path fill="#000000" d="M37.4968 37.498c-0.2965 0 -0.5865 0.088 -0.8332 0.2528 -0.2466 0.1648 -0.4388 0.399 -0.5523 0.6731 -0.1136 0.2741 -0.1433 0.5756 -0.0854 0.8665 0.0579 0.2909 0.2007 0.5581 0.4104 0.7679 0.2098 0.2097 0.477 0.3526 0.768 0.4105 0.2909 0.0578 0.5924 0.0281 0.8665 -0.0854s0.5082 -0.3058 0.6731 -0.5524c0.1648 -0.2466 0.2527 -0.5365 0.2527 -0.8332 0 -0.3977 -0.158 -0.7792 -0.4392 -1.0605 -0.2813 -0.2812 -0.6628 -0.4393 -1.0606 -0.4393Z" stroke-width="1"></path><path fill="#000000" d="M37.4968 29.999c-0.2965 0 -0.5865 0.0879 -0.8332 0.2527 -0.2466 0.1649 -0.4388 0.3991 -0.5523 0.6731 -0.1136 0.2741 -0.1433 0.5757 -0.0854 0.8665 0.0579 0.291 0.2007 0.5582 0.4104 0.768 0.2098 0.2097 0.477 0.3525 0.768 0.4105 0.2909 0.0578 0.5924 0.0281 0.8665 -0.0854s0.5082 -0.3058 0.6731 -0.5524c0.1648 -0.2466 0.2527 -0.5365 0.2527 -0.8332 0 -0.3977 -0.158 -0.7792 -0.4392 -1.0605 -0.2813 -0.2812 -0.6628 -0.4393 -1.0606 -0.4393Z" stroke-width="1"></path><path fill="#000000" d="M37.4968 22.499c-0.2965 0 -0.5865 0.0879 -0.8332 0.2527 -0.2466 0.1649 -0.4388 0.3991 -0.5523 0.6731 -0.1136 0.2741 -0.1433 0.5757 -0.0854 0.8665 0.0579 0.291 0.2007 0.5582 0.4104 0.768 0.2098 0.2097 0.477 0.3525 0.768 0.4105 0.2909 0.0578 0.5924 0.0281 0.8665 -0.0854s0.5082 -0.3058 0.6731 -0.5524c0.1648 -0.2466 0.2527 -0.5365 0.2527 -0.8332 0 -0.3977 -0.158 -0.7792 -0.4392 -1.0605 -0.2813 -0.2812 -0.6628 -0.4393 -1.0606 -0.4393Z" stroke-width="1"></path><path fill="#000000" d="M31.4978 37.498c-0.2966 0 -0.5866 0.088 -0.8332 0.2528 -0.2466 0.1648 -0.4389 0.399 -0.5524 0.6731 -0.1135 0.2741 -0.1432 0.5756 -0.0854 0.8665 0.058 0.2909 0.2008 0.5581 0.4105 0.7679 0.2098 0.2097 0.477 0.3526 0.768 0.4105 0.2908 0.0578 0.5924 0.0281 0.8665 -0.0854 0.274 -0.1135 0.5082 -0.3058 0.6731 -0.5524 0.1648 -0.2466 0.2527 -0.5365 0.2527 -0.8332 0 -0.3977 -0.1581 -0.7792 -0.4393 -1.0605 -0.2813 -0.2812 -0.6628 -0.4393 -1.0605 -0.4393Z" stroke-width="1"></path><path fill="#000000" d="M31.4978 29.999c-0.2966 0 -0.5866 0.0879 -0.8332 0.2527 -0.2466 0.1649 -0.4389 0.3991 -0.5524 0.6731 -0.1135 0.2741 -0.1432 0.5757 -0.0854 0.8665 0.058 0.291 0.2008 0.5582 0.4105 0.768 0.2098 0.2097 0.477 0.3525 0.768 0.4105 0.2908 0.0578 0.5924 0.0281 0.8665 -0.0854 0.274 -0.1135 0.5082 -0.3058 0.6731 -0.5524 0.1648 -0.2466 0.2527 -0.5365 0.2527 -0.8332 0 -0.3977 -0.1581 -0.7792 -0.4393 -1.0605 -0.2813 -0.2812 -0.6628 -0.4393 -1.0605 -0.4393Z" stroke-width="1"></path><path fill="#000000" d="M31.4978 22.499c-0.2966 0 -0.5866 0.0879 -0.8332 0.2527 -0.2466 0.1649 -0.4389 0.3991 -0.5524 0.6731 -0.1135 0.2741 -0.1432 0.5757 -0.0854 0.8665 0.058 0.291 0.2008 0.5582 0.4105 0.768 0.2098 0.2097 0.477 0.3525 0.768 0.4105 0.2908 0.0578 0.5924 0.0281 0.8665 -0.0854 0.274 -0.1135 0.5082 -0.3058 0.6731 -0.5524 0.1648 -0.2466 0.2527 -0.5365 0.2527 -0.8332 0 -0.3977 -0.1581 -0.7792 -0.4393 -1.0605 -0.2813 -0.2812 -0.6628 -0.4393 -1.0605 -0.4393Z" stroke-width="1"></path></svg>