<svg xmlns="http://www.w3.org/2000/svg" fill="none" viewBox="0 0 24 24" id="Graph-Cured-Increasing--Streamline-Covid" height="24" width="24"><desc>Graph Cured Increasing Streamline Icon: https://streamlinehq.com</desc><path stroke="#000000" stroke-linecap="round" stroke-linejoin="round" d="M21.755 22.5h-21v-21" stroke-width="1.5"></path><path stroke="#000000" stroke-linecap="round" stroke-linejoin="round" d="M15.755 6a1 1 0 0 0 -1 -1h-2.5V2.5a1 1 0 0 0 -1 -1h-1.5a1 1 0 0 0 -1 1V5h-2.5a1 1 0 0 0 -1 1v1.5a1 1 0 0 0 1 1h2.5V11a1 1 0 0 0 1 1h1.5a1 1 0 0 0 1 -1V8.5h2.5a1 1 0 0 0 1 -1V6Z" stroke-width="1.5"></path><path stroke="#000000" stroke-linecap="round" stroke-linejoin="round" d="M0.755 19.512h2.7c8.9 0 16.065 -3.387 17.955 -12.762" stroke-width="1.5"></path><path stroke="#000000" stroke-linecap="round" stroke-linejoin="round" d="m18.571 8.582 2.842 -1.832 1.832 2.842" stroke-width="1.5"></path></svg>