<svg id="Kg-Weight--Streamline-Atlas.svg" xmlns="http://www.w3.org/2000/svg" viewBox="-0.5 -0.5 16 16" height="16" width="16"><desc>Kg Weight Streamline Icon: https://streamlinehq.com</desc><defs></defs><path d="m10.549999999999999 5.35625 1.00625 -2.3499999999999996a1.53125 1.53125 0 0 0 0.11875 -0.58125 1.4812500000000002 1.4812500000000002 0 0 0 -1.4812500000000002 -1.4874999999999998H4.80625a1.4812500000000002 1.4812500000000002 0 0 0 -1.4812500000000002 1.4874999999999998 1.53125 1.53125 0 0 0 0.11875 0.58125l1.00625 2.3499999999999996" fill="none" stroke="#000000" stroke-miterlimit="10" stroke-width="1"></path><path d="M7.5 4.518750000000001a5.96875 5.96875 0 0 0 -5.96875 5.9624999999999995l0 0.21250000000000002 0 0.19375a5.4 5.4 0 0 0 0.375 1.9875 1.7874999999999999 1.7874999999999999 0 0 0 0.49375 0.7000000000000001A2.10625 2.10625 0 0 0 3.75 14.0625h7.5a2.08125 2.08125 0 0 0 1.34375 -0.48125 1.7000000000000002 1.7000000000000002 0 0 0 0.48125 -0.68125 5.36875 5.36875 0 0 0 0.38125 -2.10625v-0.043750000000000004l0 -0.2625A5.96875 5.96875 0 0 0 7.5 4.518750000000001Z" fill="none" stroke="#000000" stroke-miterlimit="10" stroke-width="1"></path><path d="m4.518750000000001 7.5 0 4.7749999999999995" fill="none" stroke="#000000" stroke-miterlimit="10" stroke-width="1"></path><path d="M6.30625 7.5v0.625a1.7874999999999999 1.7874999999999999 0 0 1 -1.7874999999999999 1.7937500000000002 1.7874999999999999 1.7874999999999999 0 0 1 1.7874999999999999 1.7874999999999999v0.625" fill="none" stroke="#000000" stroke-miterlimit="10" stroke-width="1"></path><path d="M9.2875 9.8875h1.1937499999999999v0.59375a1.1875 1.1875 0 0 1 -1.1937499999999999 1.1937499999999999A1.1937499999999999 1.1937499999999999 0 0 1 8.125 10.48125v-1.1937499999999999A1.2 1.2 0 0 1 9.2875 8.125h1.1937499999999999" fill="none" stroke="#000000" stroke-miterlimit="10" stroke-width="1"></path></svg>