<svg xmlns="http://www.w3.org/2000/svg" viewBox="-0.75 -0.75 24 24" fill="none" stroke="#000000" stroke-linecap="round" stroke-linejoin="round" id="Settings--Streamline-Tabler" height="24" width="24"><desc>Settings Streamline Icon: https://streamlinehq.com</desc><path d="M9.6796875 4.0471875c0.399375 -1.64625 2.74125 -1.64625 3.140625 0a1.61625 1.61625 0 0 0 2.4121875 0.999375c1.4465625 -0.88125 3.103125 0.7743749999999999 2.2218750000000003 2.2218750000000003a1.61625 1.61625 0 0 0 0.9984375 2.41125c1.64625 0.399375 1.64625 2.74125 0 3.140625a1.61625 1.61625 0 0 0 -0.999375 2.4121875c0.88125 1.4465625 -0.7743749999999999 3.103125 -2.2218750000000003 2.2218750000000003a1.61625 1.61625 0 0 0 -2.41125 0.9984375c-0.399375 1.64625 -2.74125 1.64625 -3.140625 0a1.61625 1.61625 0 0 0 -2.4121875 -0.999375c-1.4465625 0.88125 -3.103125 -0.7743749999999999 -2.2218750000000003 -2.2218750000000003a1.61625 1.61625 0 0 0 -0.9984375 -2.41125c-1.64625 -0.399375 -1.64625 -2.74125 0 -3.140625a1.61625 1.61625 0 0 0 0.999375 -2.4121875c-0.88125 -1.4465625 0.7743749999999999 -3.103125 2.2218750000000003 -2.2218750000000003 0.9375 0.57 2.1525 0.065625 2.41125 -0.9984375z" stroke-width="1.5"></path><path d="M8.4375 11.25a2.8125 2.8125 0 1 0 5.625 0 2.8125 2.8125 0 0 0 -5.625 0" stroke-width="1.5"></path></svg>